<mxfile host="Electron" modified="2024-04-29T20:00:19.177Z" agent="Mozilla/5.0 (Windows NT 10.0; Win64; x64) AppleWebKit/537.36 (KHTML, like Gecko) draw.io/22.0.3 Chrome/114.0.5735.289 Electron/25.8.4 Safari/537.36" etag="4UiNuzh0CRhVl3gnOgnz" version="22.0.3" type="device">
  <diagram name="Seite-1" id="oZJULneD_4SWPVQiMQKV">
    <mxGraphModel dx="1720" dy="828" grid="1" gridSize="10" guides="1" tooltips="1" connect="1" arrows="1" fold="1" page="1" pageScale="1" pageWidth="827" pageHeight="1169" math="0" shadow="0">
      <root>
        <mxCell id="0" />
        <mxCell id="1" parent="0" />
        <mxCell id="YofXuTGzPk34DAEE1OgE-1" value="tzuiop" style="shape=folder;fontStyle=1;spacingTop=10;tabWidth=190;tabHeight=20;tabPosition=left;html=1;whiteSpace=wrap;" parent="1" vertex="1">
          <mxGeometry x="230" y="180" width="620" height="500" as="geometry" />
        </mxCell>
        <mxCell id="YofXuTGzPk34DAEE1OgE-2" value="&amp;lt;&amp;lt;model&amp;gt;&amp;gt; Layered Application" style="text;html=1;strokeColor=none;fillColor=none;align=center;verticalAlign=middle;whiteSpace=wrap;rounded=0;" parent="1" vertex="1">
          <mxGeometry x="220" y="185" width="200" height="10" as="geometry" />
        </mxCell>
        <mxCell id="YofXuTGzPk34DAEE1OgE-3" value="" style="shape=folder;fontStyle=1;spacingTop=10;tabWidth=140;tabHeight=20;tabPosition=left;html=1;whiteSpace=wrap;" parent="1" vertex="1">
          <mxGeometry x="280" y="210" width="520" height="230" as="geometry" />
        </mxCell>
        <mxCell id="YofXuTGzPk34DAEE1OgE-4" value="Frontend" style="text;html=1;strokeColor=none;fillColor=none;align=center;verticalAlign=middle;whiteSpace=wrap;rounded=0;" parent="1" vertex="1">
          <mxGeometry x="280" y="205" width="60" height="30" as="geometry" />
        </mxCell>
        <mxCell id="YofXuTGzPk34DAEE1OgE-5" value="API" style="shape=folder;fontStyle=1;spacingTop=10;tabWidth=40;tabHeight=14;tabPosition=left;html=1;whiteSpace=wrap;" parent="1" vertex="1">
          <mxGeometry x="320" y="350" width="100" height="70" as="geometry" />
        </mxCell>
        <mxCell id="YofXuTGzPk34DAEE1OgE-7" value="User Interface" style="shape=folder;fontStyle=1;spacingTop=10;tabWidth=40;tabHeight=14;tabPosition=left;html=1;whiteSpace=wrap;" parent="1" vertex="1">
          <mxGeometry x="490" y="240" width="100" height="70" as="geometry" />
        </mxCell>
        <mxCell id="YofXuTGzPk34DAEE1OgE-8" value="Recipies" style="shape=folder;fontStyle=1;spacingTop=10;tabWidth=40;tabHeight=14;tabPosition=left;html=1;whiteSpace=wrap;" parent="1" vertex="1">
          <mxGeometry x="490" y="350" width="100" height="70" as="geometry" />
        </mxCell>
        <mxCell id="YofXuTGzPk34DAEE1OgE-9" value="" style="shape=folder;fontStyle=1;spacingTop=10;tabWidth=60;tabHeight=20;tabPosition=left;html=1;whiteSpace=wrap;" parent="1" vertex="1">
          <mxGeometry x="280" y="470" width="520" height="150" as="geometry" />
        </mxCell>
        <mxCell id="YofXuTGzPk34DAEE1OgE-10" value="&lt;font style=&quot;font-size: 12px;&quot;&gt;Backend&lt;/font&gt;" style="text;html=1;strokeColor=none;fillColor=none;align=center;verticalAlign=middle;whiteSpace=wrap;rounded=0;" parent="1" vertex="1">
          <mxGeometry x="280" y="465" width="60" height="30" as="geometry" />
        </mxCell>
        <mxCell id="YofXuTGzPk34DAEE1OgE-15" value="" style="endArrow=classic;dashed=1;html=1;rounded=0;exitX=0.5;exitY=1;exitDx=0;exitDy=0;exitPerimeter=0;entryX=0.5;entryY=0.151;entryDx=0;entryDy=0;entryPerimeter=0;" parent="1" source="YofXuTGzPk34DAEE1OgE-3" target="YofXuTGzPk34DAEE1OgE-9" edge="1">
          <mxGeometry width="50" height="50" relative="1" as="geometry">
            <mxPoint x="660" y="470" as="sourcePoint" />
            <mxPoint x="710" y="420" as="targetPoint" />
          </mxGeometry>
        </mxCell>
        <mxCell id="YofXuTGzPk34DAEE1OgE-18" value="OpenAI" style="shape=folder;fontStyle=1;spacingTop=10;tabWidth=40;tabHeight=14;tabPosition=left;html=1;whiteSpace=wrap;" parent="1" vertex="1">
          <mxGeometry x="320" y="515" width="100" height="70" as="geometry" />
        </mxCell>
        <mxCell id="YofXuTGzPk34DAEE1OgE-19" value="Database" style="shape=folder;fontStyle=1;spacingTop=10;tabWidth=40;tabHeight=14;tabPosition=left;html=1;whiteSpace=wrap;" parent="1" vertex="1">
          <mxGeometry x="490" y="515" width="100" height="70" as="geometry" />
        </mxCell>
        <mxCell id="YofXuTGzPk34DAEE1OgE-20" value="Account management" style="shape=folder;fontStyle=1;spacingTop=10;tabWidth=40;tabHeight=14;tabPosition=left;html=1;whiteSpace=wrap;" parent="1" vertex="1">
          <mxGeometry x="660" y="515" width="100" height="70" as="geometry" />
        </mxCell>
        <mxCell id="YofXuTGzPk34DAEE1OgE-22" value="Login" style="shape=folder;fontStyle=1;spacingTop=10;tabWidth=40;tabHeight=14;tabPosition=left;html=1;whiteSpace=wrap;" parent="1" vertex="1">
          <mxGeometry x="660" y="350" width="100" height="70" as="geometry" />
        </mxCell>
        <mxCell id="YofXuTGzPk34DAEE1OgE-25" value="" style="endArrow=classic;dashed=1;html=1;rounded=0;exitX=0;exitY=0;exitDx=0;exitDy=42;exitPerimeter=0;entryX=0;entryY=0;entryDx=70;entryDy=14;entryPerimeter=0;" parent="1" source="YofXuTGzPk34DAEE1OgE-7" target="YofXuTGzPk34DAEE1OgE-5" edge="1">
          <mxGeometry width="50" height="50" relative="1" as="geometry">
            <mxPoint x="550" y="450" as="sourcePoint" />
            <mxPoint x="550" y="503" as="targetPoint" />
            <Array as="points">
              <mxPoint x="390" y="282" />
            </Array>
          </mxGeometry>
        </mxCell>
        <mxCell id="YofXuTGzPk34DAEE1OgE-26" value="" style="endArrow=classic;dashed=1;html=1;rounded=0;exitX=0.5;exitY=1;exitDx=0;exitDy=0;exitPerimeter=0;entryX=0.509;entryY=0.198;entryDx=0;entryDy=0;entryPerimeter=0;" parent="1" source="YofXuTGzPk34DAEE1OgE-7" target="YofXuTGzPk34DAEE1OgE-8" edge="1">
          <mxGeometry width="50" height="50" relative="1" as="geometry">
            <mxPoint x="560" y="460" as="sourcePoint" />
            <mxPoint x="560" y="513" as="targetPoint" />
          </mxGeometry>
        </mxCell>
        <mxCell id="YofXuTGzPk34DAEE1OgE-27" value="" style="endArrow=classic;dashed=1;html=1;rounded=0;exitX=0;exitY=0;exitDx=100;exitDy=42;exitPerimeter=0;entryX=0;entryY=0;entryDx=70;entryDy=14;entryPerimeter=0;" parent="1" source="YofXuTGzPk34DAEE1OgE-7" target="YofXuTGzPk34DAEE1OgE-22" edge="1">
          <mxGeometry width="50" height="50" relative="1" as="geometry">
            <mxPoint x="570" y="470" as="sourcePoint" />
            <mxPoint x="570" y="523" as="targetPoint" />
            <Array as="points">
              <mxPoint x="730" y="282" />
            </Array>
          </mxGeometry>
        </mxCell>
        <mxCell id="gqoct8D2tjjthWymqNj4-1" style="edgeStyle=orthogonalEdgeStyle;rounded=0;orthogonalLoop=1;jettySize=auto;html=1;exitX=0.5;exitY=1;exitDx=0;exitDy=0;exitPerimeter=0;" edge="1" parent="1" source="YofXuTGzPk34DAEE1OgE-1" target="YofXuTGzPk34DAEE1OgE-1">
          <mxGeometry relative="1" as="geometry" />
        </mxCell>
      </root>
    </mxGraphModel>
  </diagram>
</mxfile>
